<svg xmlns="http://www.w3.org/2000/svg" xmlns:xlink="http://www.w3.org/1999/xlink" width="1080" zoomAndPan="magnify" viewBox="0 0 810 809.999993" height="1080" preserveAspectRatio="xMidYMid meet" version="1.0"><defs><g/><clipPath id="016bf833f8"><path d="M 168.449219 261.804688 L 514.949219 261.804688 L 514.949219 608.304688 L 168.449219 608.304688 Z M 168.449219 261.804688 " clip-rule="nonzero"/></clipPath><clipPath id="d8de7cdfe7"><path d="M 40 0.640625 L 51 0.640625 L 51 50 L 40 50 Z M 40 0.640625 " clip-rule="nonzero"/></clipPath><clipPath id="1533417ea2"><path d="M 238 0.640625 L 249 0.640625 L 249 50 L 238 50 Z M 238 0.640625 " clip-rule="nonzero"/></clipPath><clipPath id="a59c2c5ec4"><path d="M 374 2 L 399.839844 2 L 399.839844 51 L 374 51 Z M 374 2 " clip-rule="nonzero"/></clipPath><clipPath id="c78e09befb"><rect x="0" width="400" y="0" height="73"/></clipPath></defs><rect x="-81" width="972" fill="#ffffff" y="-80.999999" height="971.999992" fill-opacity="1"/><rect x="-81" width="972" fill="#ffffff" y="-80.999999" height="971.999992" fill-opacity="1"/><g clip-path="url(#016bf833f8)"><path fill="#d9d9d9" d="M 307.179688 513.257812 L 411.226562 435.21875 L 307.179688 357.183594 Z M 341.863281 261.804688 C 246.050781 261.804688 168.449219 339.410156 168.449219 435.21875 C 168.449219 531.03125 246.050781 608.632812 341.863281 608.632812 C 437.671875 608.632812 515.277344 531.03125 515.277344 435.21875 C 515.277344 339.410156 437.671875 261.804688 341.863281 261.804688 Z M 341.863281 573.953125 C 265.386719 573.953125 203.128906 511.695312 203.128906 435.21875 C 203.128906 358.746094 265.386719 296.488281 341.863281 296.488281 C 418.335938 296.488281 480.59375 358.746094 480.59375 435.21875 C 480.59375 511.695312 418.335938 573.953125 341.863281 573.953125 Z M 341.863281 573.953125 " fill-opacity="1" fill-rule="nonzero"/></g><g transform="matrix(1, 0, 0, 1, 204, 410)"><g clip-path="url(#c78e09befb)"><g fill="#000000" fill-opacity="1"><g transform="translate(0.866716, 49.995611)"><g><path d="M 20.296875 -36.632812 C 10.324219 -36.632812 4.03125 -32.460938 3.183594 -25.390625 L 13.011719 -24.46875 C 13.011719 -27.863281 15.769531 -29.703125 19.238281 -29.703125 C 21.925781 -29.703125 24.398438 -28.570312 24.398438 -24.683594 L 24.398438 -22.417969 L 18.175781 -21.851562 C 5.730469 -20.652344 2.121094 -15.132812 2.121094 -9.476562 C 2.121094 -3.183594 6.578125 0.707031 13.4375 0.707031 C 18.386719 0.707031 21.710938 -0.988281 24.894531 -5.585938 L 24.894531 -4.597656 C 24.894531 -3.113281 25.035156 -1.625 25.390625 0 L 35.714844 0 C 35.148438 -1.910156 35.007812 -3.890625 35.007812 -5.09375 L 35.007812 -25.882812 C 35.007812 -33.945312 27.652344 -36.632812 20.296875 -36.632812 Z M 13.15625 -10.609375 C 13.15625 -15.0625 18.53125 -16.621094 24.398438 -17.1875 L 24.398438 -14.003906 C 24.398438 -10.46875 22.488281 -5.871094 17.609375 -5.871094 C 14.851562 -5.871094 13.15625 -7.78125 13.15625 -10.609375 Z M 13.15625 -10.609375 "/></g></g></g><g clip-path="url(#d8de7cdfe7)"><g fill="#000000" fill-opacity="1"><g transform="translate(36.225066, 49.995611)"><g><path d="M 3.890625 -49.222656 L 3.890625 -39.179688 L 14.285156 -39.179688 L 14.285156 -49.222656 Z M 3.890625 -35.925781 L 3.890625 0 L 14.285156 0 L 14.285156 -35.925781 Z M 3.890625 -35.925781 "/></g></g></g></g><g fill="#000000" fill-opacity="1"><g transform="translate(51.78259, 49.995611)"><g><path d="M 21.144531 -36.632812 C 17.964844 -36.632812 15.417969 -34.371094 14.003906 -29.207031 L 13.863281 -29.207031 L 13.863281 -35.925781 L 4.171875 -35.925781 L 4.171875 0 L 14.570312 0 L 14.570312 -14.074219 C 14.570312 -22.914062 17.46875 -26.097656 22.632812 -26.097656 L 23.480469 -26.097656 L 23.480469 -36.492188 C 22.558594 -36.5625 21.851562 -36.632812 21.144531 -36.632812 Z M 21.144531 -36.632812 "/></g></g></g><g fill="#000000" fill-opacity="1"><g transform="translate(72.997492, 49.995611)"><g><path d="M 18.953125 -36.632812 C 8.699219 -36.632812 1.769531 -28.570312 1.769531 -17.46875 C 1.769531 -6.648438 8.910156 0.707031 19.519531 0.707031 C 25.246094 0.707031 30.128906 -1.769531 33.167969 -5.941406 C 34.726562 -8.0625 35.644531 -9.972656 35.855469 -11.667969 L 26.238281 -12.375 C 26.238281 -9.195312 23.195312 -6.71875 19.875 -6.71875 C 15.417969 -6.71875 12.941406 -10.042969 12.941406 -14.355469 C 12.941406 -14.992188 13.011719 -15.558594 13.011719 -16.195312 L 36.070312 -16.195312 L 36.070312 -17.257812 C 36.070312 -30.339844 28.289062 -36.632812 18.953125 -36.632812 Z M 12.941406 -22.347656 C 13.4375 -27.652344 15.984375 -29.84375 19.589844 -29.84375 C 23.339844 -29.84375 25.390625 -27.441406 25.671875 -22.347656 Z M 12.941406 -22.347656 "/></g></g></g><g fill="#5e17eb" fill-opacity="1"><g transform="translate(108.358624, 49.995611)"><g><path d="M 23.480469 -36.632812 C 18.742188 -36.632812 15.277344 -34.582031 13.507812 -30.410156 L 13.367188 -30.410156 L 13.367188 -35.925781 L 3.464844 -35.925781 L 3.464844 0 L 13.863281 0 L 13.863281 -20.085938 C 13.863281 -25.8125 15.207031 -28.289062 19.09375 -28.289062 C 22.207031 -28.289062 23.761719 -26.308594 23.761719 -22.417969 L 23.761719 0 L 34.160156 0 L 34.160156 -21.570312 C 34.160156 -27.652344 37.835938 -28.21875 39.535156 -28.21875 C 42.433594 -28.21875 44.058594 -27.015625 44.058594 -23.125 L 44.058594 0 L 54.457031 0 L 54.457031 -26.734375 C 54.457031 -34.230469 48.585938 -36.632812 43.777344 -36.632812 C 39.179688 -36.632812 35.078125 -34.511719 33.308594 -30.410156 C 31.117188 -34.726562 28.21875 -36.632812 23.480469 -36.632812 Z M 23.480469 -36.632812 "/></g></g></g><g fill="#5e17eb" fill-opacity="1"><g transform="translate(163.517808, 49.995611)"><g><path d="M 18.953125 -36.632812 C 8.699219 -36.632812 1.769531 -28.570312 1.769531 -17.46875 C 1.769531 -6.648438 8.910156 0.707031 19.519531 0.707031 C 25.246094 0.707031 30.128906 -1.769531 33.167969 -5.941406 C 34.726562 -8.0625 35.644531 -9.972656 35.855469 -11.667969 L 26.238281 -12.375 C 26.238281 -9.195312 23.195312 -6.71875 19.875 -6.71875 C 15.417969 -6.71875 12.941406 -10.042969 12.941406 -14.355469 C 12.941406 -14.992188 13.011719 -15.558594 13.011719 -16.195312 L 36.070312 -16.195312 L 36.070312 -17.257812 C 36.070312 -30.339844 28.289062 -36.632812 18.953125 -36.632812 Z M 12.941406 -22.347656 C 13.4375 -27.652344 15.984375 -29.84375 19.589844 -29.84375 C 23.339844 -29.84375 25.390625 -27.441406 25.671875 -22.347656 Z M 12.941406 -22.347656 "/></g></g></g><g fill="#5e17eb" fill-opacity="1"><g transform="translate(198.876159, 49.995611)"><g><path d="M 24.257812 -48.515625 L 24.257812 -32.109375 C 21.996094 -35.433594 19.308594 -36.632812 15.277344 -36.632812 C 6.71875 -36.632812 2.121094 -29.207031 2.121094 -17.539062 C 2.121094 -6.292969 6.789062 0.707031 15.0625 0.707031 C 19.660156 0.707031 22.558594 -1.699219 24.613281 -5.585938 L 24.753906 -5.585938 L 24.753906 0 L 34.652344 0 L 34.652344 -48.515625 Z M 13.082031 -17.398438 C 13.082031 -26.167969 15.347656 -29.351562 19.164062 -29.351562 C 22.773438 -29.351562 24.257812 -26.308594 24.257812 -20.15625 L 24.257812 -14.285156 C 24.257812 -8.910156 21.5 -6.789062 18.8125 -6.789062 C 15.0625 -6.789062 13.082031 -10.253906 13.082031 -17.398438 Z M 13.082031 -17.398438 "/></g></g></g><g clip-path="url(#1533417ea2)"><g fill="#5e17eb" fill-opacity="1"><g transform="translate(234.234509, 49.995611)"><g><path d="M 3.890625 -49.222656 L 3.890625 -39.179688 L 14.285156 -39.179688 L 14.285156 -49.222656 Z M 3.890625 -35.925781 L 3.890625 0 L 14.285156 0 L 14.285156 -35.925781 Z M 3.890625 -35.925781 "/></g></g></g></g><g fill="#5e17eb" fill-opacity="1"><g transform="translate(249.792026, 49.995611)"><g><path d="M 20.296875 -36.632812 C 10.324219 -36.632812 4.03125 -32.460938 3.183594 -25.390625 L 13.011719 -24.46875 C 13.011719 -27.863281 15.769531 -29.703125 19.238281 -29.703125 C 21.925781 -29.703125 24.398438 -28.570312 24.398438 -24.683594 L 24.398438 -22.417969 L 18.175781 -21.851562 C 5.730469 -20.652344 2.121094 -15.132812 2.121094 -9.476562 C 2.121094 -3.183594 6.578125 0.707031 13.4375 0.707031 C 18.386719 0.707031 21.710938 -0.988281 24.894531 -5.585938 L 24.894531 -4.597656 C 24.894531 -3.113281 25.035156 -1.625 25.390625 0 L 35.714844 0 C 35.148438 -1.910156 35.007812 -3.890625 35.007812 -5.09375 L 35.007812 -25.882812 C 35.007812 -33.945312 27.652344 -36.632812 20.296875 -36.632812 Z M 13.15625 -10.609375 C 13.15625 -15.0625 18.53125 -16.621094 24.398438 -17.1875 L 24.398438 -14.003906 C 24.398438 -10.46875 22.488281 -5.871094 17.609375 -5.871094 C 14.851562 -5.871094 13.15625 -7.78125 13.15625 -10.609375 Z M 13.15625 -10.609375 "/></g></g></g><g fill="#000000" fill-opacity="1"><g transform="translate(285.155279, 49.995611)"><g><path d="M 5.09375 -10.960938 L 5.09375 0 L 16.195312 0 L 16.195312 -10.960938 Z M 5.09375 -10.960938 "/></g></g></g><g fill="#000000" fill-opacity="1"><g transform="translate(303.541495, 49.995611)"><g><path d="M 23.761719 -36.632812 C 18.601562 -36.632812 15.699219 -34.441406 13.507812 -29.84375 L 13.367188 -29.84375 L 13.367188 -35.925781 L 3.535156 -35.925781 L 3.535156 0 L 13.933594 0 L 13.933594 -19.589844 C 13.933594 -25.460938 16.195312 -28.359375 19.589844 -28.359375 C 22.984375 -28.359375 24.257812 -25.671875 24.257812 -22.347656 L 24.257812 0 L 34.652344 0 L 34.652344 -24.46875 C 34.652344 -31.257812 32.039062 -36.632812 23.761719 -36.632812 Z M 23.761719 -36.632812 "/></g></g></g><g fill="#000000" fill-opacity="1"><g transform="translate(338.899846, 49.995611)"><g><path d="M 18.953125 -36.632812 C 8.699219 -36.632812 1.769531 -28.570312 1.769531 -17.46875 C 1.769531 -6.648438 8.910156 0.707031 19.519531 0.707031 C 25.246094 0.707031 30.128906 -1.769531 33.167969 -5.941406 C 34.726562 -8.0625 35.644531 -9.972656 35.855469 -11.667969 L 26.238281 -12.375 C 26.238281 -9.195312 23.195312 -6.71875 19.875 -6.71875 C 15.417969 -6.71875 12.941406 -10.042969 12.941406 -14.355469 C 12.941406 -14.992188 13.011719 -15.558594 13.011719 -16.195312 L 36.070312 -16.195312 L 36.070312 -17.257812 C 36.070312 -30.339844 28.289062 -36.632812 18.953125 -36.632812 Z M 12.941406 -22.347656 C 13.4375 -27.652344 15.984375 -29.84375 19.589844 -29.84375 C 23.339844 -29.84375 25.390625 -27.441406 25.671875 -22.347656 Z M 12.941406 -22.347656 "/></g></g></g><g clip-path="url(#a59c2c5ec4)"><g fill="#000000" fill-opacity="1"><g transform="translate(374.258196, 49.995611)"><g><path d="M 16.621094 -47.242188 L 7.566406 -46.535156 L 6.648438 -35.996094 L 0.355469 -35.996094 L 0.355469 -27.722656 L 6.222656 -27.722656 L 6.222656 -10.183594 C 6.222656 -1.625 10.183594 0.707031 18.8125 0.707031 C 20.367188 0.707031 22.84375 0.425781 24.894531 -0.0703125 L 24.894531 -7.921875 C 23.054688 -7.707031 22.277344 -7.636719 21.429688 -7.636719 C 17.539062 -7.636719 16.621094 -8.203125 16.621094 -13.011719 L 16.621094 -27.722656 L 24.328125 -27.722656 L 24.328125 -35.996094 L 16.621094 -35.996094 Z M 16.621094 -47.242188 "/></g></g></g></g></g></g></svg>